<svg id="SvgjsSvg1006" width="288" height="288" xmlns="http://www.w3.org/2000/svg" version="1.1" xmlns:xlink="http://www.w3.org/1999/xlink" xmlns:svgjs="http://svgjs.com/svgjs"><defs id="SvgjsDefs1007"></defs><g id="SvgjsG1008"><svg xmlns="http://www.w3.org/2000/svg" width="288" height="288" version="1.0" viewBox="0 0 500 500"><g transform="matrix(.1 0 0 -.1 0 500)" fill="#0087a1" class="color000 svgShape"><path d="M643 3550 c-94 -22 -149 -114 -124 -208 16 -59 53 -98 113 -118 49-16 73 -14 134 12 6 3 98 -60 205 -138 107 -79 231 -169 276 -201 45 -32 85
-62 88 -67 3 -5 -13 -33 -35 -62 -60 -80 -83 -146 -88 -258 -3 -84 -1 -103 23
-165 14 -38 28 -77 31 -85 2 -10 -29 -42 -87 -89 -88 -72 -93 -75 -139 -72
-59 3 -101 -17 -129 -62 -58 -94 8 -217 116 -217 80 0 132 50 142 136 6 52 7
54 95 128 l89 75 28 -24 c37 -30 132 -75 175 -82 l34 -6 0 -88 c0 -79 -2 -89
-21 -100 -11 -6 -30 -31 -41 -56 -35 -79 -9 -157 63 -194 51 -26 108 -25 150
4 86 57 91 188 10 246 -30 22 -31 24 -31 101 l0 79 43 11 c23 6 54 16 69 21
14 6 33 9 40 7 8 -1 143 -97 301 -212 l287 -209 0 -52 c0 -42 6 -60 30 -93 37
-52 76 -72 137 -72 56 0 99 23 137 73 21 28 26 45 26 94 0 128 -102 196 -235
158 -14 -4 -52 17 -135 78 -263 191 -425 310 -433 317 -5 4 5 23 22 42 17 20
45 64 63 99 32 62 33 67 33 189 -1 114 -3 130 -27 182 l-26 56 90 75 c86 71
93 74 120 65 91 -32 195 75 168 172 -34 123 -203 143 -260 30 -11 -22 -20 -54
-20 -72 -1 -29 -11 -41 -81 -98 -44 -36 -84 -67 -90 -68 -5 -2 -22 7 -38 21
-38 31 -110 66 -168 81 l-46 12 2 89 c2 80 5 91 27 112 90 84 38 239 -86 251
-89 8 -153 -39 -165 -121 -9 -56 12 -106 59 -143 36 -29 36 -29 36 -107 0 -53
-4 -79 -12 -81 -7 -2 -41 -13 -74 -24 l-61 -19 -49 37 c-27 20 -162 119 -300
220 l-252 182 -4 53 c-9 107 -105 179 -205 155z m1123 -860 c56 -32 70 -47 99
-103 29 -59 31 -105 10 -169 -31 -88 -115 -148 -210 -148 -67 0 -110 17 -153
60 -70 69 -90 162 -53 246 33 73 74 110 151 135 39 13 113 3 156 -21z" fill="#0087a1" class="color000 svgShape"></path><path d="M2330 2365l0-155 120 0 120 0 0 30 0 30-85 0-85 0 0 35 0 35 65 0 65 0 0 30 0 30-65 0-65 0 0 30 0 30 85 0 85 0 0 30 0 30-120 0-120 0 0-155zM2625 2495c-19-18-25-35-25-68 0-70 20-87 113-94 77-6 77-6 77-34 0-33 3-32-107-29-82 2-83 2-83-23 0-30 27-37 139-37 89 0 116 13 125 62 7 38-7 98-26 110-7 4-40 8-74 8-66 0-98 16-92 46 3 17 13 19 86 22l82 3 0 29 0 30-95 0c-88 0-98-2-120-25zM2900 2490c0-23 4-30 20-30 19 0 20-7 20-95 0-88-1-95-20-95-16 0-20-7-20-30l0-30 80 0 80 0 0 30c0 23-4 30-20 30-19 0-20 7-20 95 0 88 1 95 20 95 16 0 20 7 20 30l0 30-80 0-80 0 0-30zM3240 2365l0-155 35 0 35 0 0 65 0 65 60 0 60 0 0-65 0-65 35 0 35 0 0 155 0 155-35 0-35 0 0-60 0-60-60 0-60 0 0 60 0 60-35 0-35 0 0-155zM3570 2385c0-174 1-175 133-175 85 0 96 2 115 23 20 21 22 34 22 155l0 132-35 0-35 0 0-120c0-131-4-140-65-140-61 0-65 9-65 140l0 120-35 0-35 0 0-135zM3900 2364l0-156 116 4c108 3 117 5 135 27 27 33 25 86-4 115-23 23-23 24-5 46 25 31 23 66-7 95-23 23-31 25-130 25l-105 0 0-156zm180 66c0-33-23-44-76-38-25 2-29 8-32 36l-3 32 55 0c55 0 56 0 56-30zm10-105c6-8 9-23 5-35-5-17-15-20-66-20l-59 0 0 35 0 35 54 0c35 0 58-5 66-15z" fill="#0087a1" class="color000 svgShape"></path></g></svg></g></svg>